<svg xmlns="http://www.w3.org/2000/svg" role="img" viewBox="-9.56 -10.06 523.12 100.12"><g clip-path="url(#clip0_7112_17482)"><path fill="#5C2CFF" d="M101.149 64.204H157.149V70.318H101.149zM447.911 64.204H503.911V70.318H447.911z"/><path fill="#fff" d="M120.287 30.9112C122.221 30.9495 124.136 30.5275 125.875 29.6799 127.613 28.8322 129.126 27.5833 130.287 26.0362L135.662 31.5362C131.412 36.2862 126.537 38.6612 120.787 38.6612 118.192 38.7602 115.604 38.3352 113.177 37.4117 110.75 36.4882 108.534 35.0851 106.662 33.2862 104.838 31.5297 103.406 29.4082 102.458 27.0604 101.51 24.7126 101.069 22.1913 101.162 19.6612 101.09 17.104 101.554 14.5601 102.523 12.1924 103.491 9.82464 104.943 7.68525 106.787 5.91118 108.769 4.04078 111.11 2.59143 113.668 1.65062 116.226.709815 118.948.297045 121.67.437227 124.391.57741 127.057 1.26764 129.504 2.46625 131.952 3.66487 134.132 5.34702 135.912 7.41118L130.787 13.2862C129.657 11.766 128.187 10.5327 126.493 9.68584 124.799 8.83899 122.93 8.40234 121.037 8.41118 118.085 8.35438 115.223 9.42756 113.037 11.4112 111.902 12.4535 111.011 13.7333 110.428 15.1593 109.844 16.5853 109.583 18.1225 109.662 19.6612 109.583 21.1966 109.819 22.7319 110.357 24.1724 110.894 25.6128 111.721 26.9278 112.787 28.0362 114.843 29.8919 117.516 30.9167 120.287 30.9112V30.9112zM142.161 38.1611V1.03613H150.411V30.7861H166.286V38.1611H142.161zM202.536 33.0362C198.78 36.5694 193.818 38.5367 188.661 38.5367 183.505 38.5367 178.542 36.5694 174.786 33.0362 172.955 31.2797 171.509 29.1612 170.54 26.8155 169.572 24.4698 169.102 21.9482 169.161 19.4112 169.091 16.8726 169.555 14.3475 170.524 12.0001 171.493 9.65272 172.945 7.53553 174.786 5.78617 178.542 2.25291 183.505.285645 188.661.285645 193.818.285645 198.78 2.25291 202.536 5.78617 204.368 7.54265 205.814 9.66113 206.782 12.0068 207.751 14.3525 208.22 16.8741 208.161 19.4112 208.232 21.9498 207.768 24.4748 206.799 26.8222 205.83 29.1696 204.377 31.2868 202.536 33.0362V33.0362zM199.661 19.4112C199.684 16.2701 198.524 13.2355 196.411 10.9112 195.416 9.80975 194.201 8.92929 192.845 8.32668 191.488 7.72407 190.021 7.41271 188.536 7.41271 187.052 7.41271 185.584 7.72407 184.228 8.32668 182.871 8.92929 181.656 9.80975 180.661 10.9112 178.525 13.2207 177.36 16.2652 177.411 19.4112 177.388 22.5522 178.548 25.5868 180.661 27.9112 181.656 29.0126 182.871 29.8931 184.228 30.4957 185.584 31.0983 187.052 31.4096 188.536 31.4096 190.021 31.4096 191.488 31.0983 192.845 30.4957 194.201 29.8931 195.416 29.0126 196.411 27.9112 197.494 26.7837 198.339 25.4505 198.898 23.9905 199.456 22.5305 199.716 20.9733 199.661 19.4112V19.4112zM225.036 28.661C225.696 29.5159 226.551 30.2003 227.53 30.657 228.508 31.1137 229.582 31.3294 230.661 31.286 231.724 31.3425 232.784 31.1318 233.745 30.6733 234.706 30.2148 235.536 29.523 236.161 28.661 237.597 26.6193 238.301 24.1529 238.161 21.661V1.16101H246.411V21.911C246.411 27.286 244.911 31.411 241.911 34.286 240.401 35.7343 238.617 36.8672 236.664 37.6183 234.711 38.3695 232.628 38.724 230.536 38.661 228.426 38.724 226.324 38.37 224.35 37.6193 222.377 36.8685 220.571 35.7358 219.036 34.286 216.036 31.411 214.536 27.286 214.536 21.911V1.16101H222.786V21.661C222.784 24.1726 223.571 26.6214 225.036 28.661V28.661zM283.411 5.91113C286.911 9.16113 288.786 13.6611 288.786 19.4111 288.786 25.1611 287.036 29.7861 283.661 33.1611 280.286 36.5361 274.911 38.1611 267.911 38.1611H255.036V1.03613H268.161C274.786 1.03613 279.911 2.66113 283.411 5.91113zM277.411 28.0361C279.411 26.1611 280.411 23.2861 280.411 19.6611 280.411 16.0361 279.411 13.1611 277.411 11.2861 275.411 9.41113 272.286 8.28613 268.036 8.28613H263.411V30.9111H268.661C271.835 31.0802 274.956 30.0545 277.411 28.0361V28.0361zM335.911 1.03613H344.161V38.1611H335.911L318.161 14.9111V38.1611H309.911V1.03613H317.661L335.911 24.9111V1.03613zM379.786 38.1611L376.286 30.1611H360.661L357.161 38.1611H348.286L364.286 1.03613H372.286L388.286 38.1611H379.786zM368.661 12.1611L364.036 22.9111H373.286L368.661 12.1611zM406.036 8.28601V38.286H397.786V8.28601H387.286V1.16101H416.661V8.28601H406.036zM422.536 1.03613H430.786V38.1611H422.536V1.03613zM453.661 24.6611L463.161 1.03613H472.161L457.286 38.1611H450.286L435.411 1.03613H444.411L453.661 24.6611zM503.286 1.03613V8.41113H484.786V16.0361H501.411V23.1611H484.786V30.9111H503.911V38.2861H476.536V1.16113H503.286V1.03613zM11.9111 53.5731H.536133V80.2856H27.1611V68.7981H11.9111V53.5731zM69.1611 53.6981V68.7981H53.9111V80.2856H80.5361V53.5731H69.0361L69.1611 53.6981zM.536133 26.9981H12.0361L11.9111 26.8731V11.7731H27.1611V.285645H.536133V26.9981zM53.9111.285645V11.7731H69.1611V26.9981H80.5361V.285645H53.9111z"/><path fill="#fff" d="M52.4111 26.9981L37.1611 11.7731H53.9111V.285645H27.1611V11.7731L42.4111 26.9981H52.4111zM38.6611 53.5731H28.6611L41.2861 66.1856 43.7861 68.7981H27.1611V80.2856H53.9111V68.6731L46.2861 61.1731 38.6611 53.5731zM69.1611 26.9982V43.5982L66.5361 40.9732 53.9111 28.3607V38.4732L61.4111 45.9732 69.0361 53.5857H80.5361V26.9982H69.1611zM27.1611 42.0982L12.0361 26.9982H.536133V53.5732H11.9111V36.9732L27.1611 52.2107V42.0982z" opacity=".65"/><text x="306" y="77.6" text-anchor="middle" fill="#fff" font-family="Clarity City, sans-serif" font-size="28" font-weight="700" letter-spacing="0">End User</text></g><defs><clipPath id="clip0_7112_17482"><path fill="#fff" d="M0 0H504.125V80H0z" transform="translate(.536 .286)"/></clipPath></defs></svg>